<?xml version='1.0' encoding='iso-8859-1'?>
<!-- Uploaded to: SVG Repo, www.svgrepo.com, Generator: SVG Repo Mixer Tools -->
<svg fill="#000000" height="800px" width="800px" version="1.1" xmlns="http://www.w3.org/2000/svg" viewBox="0 0 423.301 423.301" xmlns:xlink="http://www.w3.org/1999/xlink" enable-background="new 0 0 423.301 423.301">
  <path d="m238.774,214.471c8.979,7.582 19.734,11.434 30.215,11.433 8.789-0.001 17.386-2.711 24.568-8.201 15.75-12.039 20.378-34.127 11.253-53.714-0.49-1.053-1.203-1.985-2.09-2.734-16.509-13.94-39.037-15.271-54.784-3.232v-0.001c-15.749,12.039-20.376,34.127-11.252,53.716 0.49,1.051 1.203,1.984 2.09,2.733zm18.879-43.737c9.32-7.126 22.816-6.393 33.361,1.636 4.98,12.28 2.147,25.496-7.174,32.621-9.321,7.124-22.818,6.391-33.36-1.635-4.981-12.282-2.149-25.498 7.173-32.622zm153.622,104.679c-0.8-0.021-1.605-0.034-2.415-0.034h-7.078c0.964-6.861 0.584-13.817-1.19-20.648l-7.969-30.682c8.53-4.366 15.001-7.707 17.907-9.253 3.901-2.073 5.383-6.917 3.309-10.818-2.074-3.902-6.918-5.386-10.818-3.309-2.459,1.307-7.634,3.982-14.519,7.512l-13.591-52.329 17.22-104.872c1.469-8.949 5.94-36.185-14.847-46.018l-4.993-2.36c-8.823-4.174-17.18-2.843-24.337,0.594-0.268,0.107-0.532,0.231-0.792,0.37-23.996,12.849-43.668,24-59.475,32.96-38.401,21.769-57.677,32.695-75.594,32.732-0.032,0.001-0.061,0.001-0.093,0.001-17.922,0-37.573-10.855-76.65-32.441-15.474-8.548-34.691-19.164-57.894-31.318-7.982-4.98-17.911-7.911-28.508-2.898l-4.994,2.361c-20.438,9.665-16.384,36.017-14.858,45.938l16.638,108.086-12.224,48.532c-6.241-3.202-10.924-5.626-13.227-6.85-3.901-2.075-8.746-0.593-10.819,3.308-2.074,3.901-0.593,8.745 3.309,10.819 2.771,1.474 8.782,4.579 16.727,8.649l-7.894,31.342c-1.717,6.819-2.062,13.754-1.083,20.592 0,0-7.695,0.014-8.496,0.034-4.417,0.111-7.907,3.782-7.795,8.199s3.799,7.908 8.2,7.795c0.667-0.017 12.901-0.028 12.901-0.028 2.043,4.388 4.662,8.653 7.842,12.733 7.807,10.018 18.417,18.409 30.508,24.558 20.456,61.495 66.801,69.9 100.795,76.063 17.548,3.182 32.702,5.93 38.366,14.854 1.467,2.312 4.016,3.713 6.754,3.713s5.288-1.401 6.754-3.714c5.664-8.925 20.819-11.672 38.367-14.854 33.646-6.101 79.53-14.42 100.255-74.467 13.771-6.354 25.916-15.481 34.378-26.422 3.094-4 5.646-8.175 7.642-12.466h11.866c0.674,0 1.344,0.012 2.011,0.028 4.368,0.112 8.088-3.379 8.199-7.795 0.112-4.414-3.378-8.085-7.795-8.197zm-366.365-226.945c-3.337-21.695 1.392-26.917 5.885-29.041l4.995-2.362c2.621-1.24 6.417-2.001 12.365,1.499 0.352,0.267 1.22,0.765 1.263,0.787 3.44,2.26 7.554,5.891 12.503,11.522l73.375,83.497c2.917,3.317 7.972,3.645 11.29,0.729 3.319-2.917 3.645-7.972 0.729-11.291l-53.013-60.326c4.712,2.59 9.149,5.041 13.313,7.341 41.48,22.913 62.338,34.436 84.38,34.436 0.043,0 0.089,0 0.132,0 22.12-0.046 42.617-11.665 83.452-34.813 3.306-1.874 6.78-3.843 10.43-5.905l-52.084,59.269c-2.916,3.319-2.59,8.374 0.729,11.291 3.318,2.915 8.372,2.59 11.291-0.729l73.375-83.498c5.808-6.609 14.809-12.887 15.096-13.04 5.191-2.649 8.616-1.912 11.036-0.767l4.993,2.36c4.244,2.008 9.473,7.194 5.898,28.962l-14.695,89.499c-4.476-4.924-9.619-9.082-15.318-12.325-9.997-5.688-21.487-8.444-33.519-8.153 4.452-3.913 9.657-6.044 14.826-5.789 4.433,0.194 8.159-3.204 8.366-7.616 0.207-4.414-3.203-8.159-7.616-8.366-2.902-0.137-5.774,0.112-8.593,0.718 10.856-15.685 24.2-24.761 37.238-24.24 4.417,0.145 8.135-3.264 8.311-7.678 0.175-4.415-3.263-8.136-7.678-8.311-28.564-1.096-55.696,26.145-69.211,69.479-0.872,2.8-0.145,5.852 1.898,7.955 2.042,2.104 5.071,2.921 7.896,2.131 14.697-4.116 28.589-2.811 40.168,3.777 11.569,6.582 19.872,17.874 24.01,32.657 0.142,0.504 11.48,43.509 11.48,43.509-28.237,14.382-68.132,34.497-84.492,42.333-1.724-1.595-3.54-3.145-5.445-4.644-3.474-2.733-8.503-2.13-11.233,1.343-2.731,3.473-2.13,8.502 1.343,11.233 3.755,2.953 7.061,6.128 9.892,9.479h-18.802c-0.397,0-1.411,0.017-1.411,0.017-4.418,0.071-7.941,3.709-7.871,8.127 0.07,4.374 3.638,7.872 7.996,7.872 0.044,0 29.499-0.016 29.499-0.016 1.72,4.777 2.606,9.717 2.606,14.717 0,7.733-1.943,14.713-6.115,21.964-0.014,0.023-0.027,0.047-0.041,0.07-0.067,0.12-0.132,0.241-0.192,0.362-11.502,22.586-43.051,37.757-78.533,37.757-35.492,0-67.049-15.178-78.543-37.775-0.035-0.07-0.072-0.142-0.11-0.211-3.959-7.342-6.229-15.421-6.229-22.167 0-5 0.887-9.939 2.606-14.717h29.305c0.308,0 0.611,0.006 0.916,0.011l.24,.004c4.392,0.114 8.056-3.453 8.127-7.871 0.071-4.418-3.453-8.056-7.871-8.127l-.226-.004c-0.394-0.007-0.787-0.013-1.185-0.013h-19.893c0.452-0.534 7.558-7.643 9.89-9.476 3.473-2.731 4.075-7.761 1.344-11.234-2.73-3.473-7.761-4.074-11.233-1.344-1.768,1.391-3.459,2.825-5.07,4.299-17.04-8.189-57.144-28.418-85.043-42.635 0,0 11.249-41.78 11.552-42.862 8.449-30.177 34.241-44.819 64.179-36.437 2.822,0.789 5.853-0.026 7.896-2.131 2.042-2.104 2.771-5.155 1.898-7.955-13.514-43.336-40.67-70.578-69.209-69.479-4.415,0.175-7.852,3.896-7.677,8.311 0.175,4.416 3.912,7.86 8.31,7.678 13.391-0.566 27.037,9.008 38.032,25.407-2.513-0.49-5.074-0.688-7.658-0.565-4.413,0.207-7.823,3.952-7.617,8.365s3.951,7.815 8.366,7.617c4.353-0.212 8.727,1.396 12.58,4.413-19.826-0.396-37.5,7.604-49.853,22.177l-14.021-91.061zm-8.189,226.911c-1.034-5.05-1.119-10.65 0.4-16.684l6.998-27.786c25.61,13.039 59.724,30.244 78.005,39.145-1.236,1.741-2.38,3.518-3.43,5.325h-81.973zm9.073,18.899c-0.705-0.904-1.414-1.871-2.111-2.898h68.406c-1.233,4.801-1.864,9.724-1.864,14.717 0,5.722 1.061,11.854 3.063,17.964h-2.812c-24.805-0.001-50.799-11.97-64.682-29.783zm206.071,94.712c-16.296,2.955-31.868,5.778-42.267,14.394-10.399-8.615-25.971-11.438-42.266-14.393-30.386-5.51-64.403-11.677-83.4-52.53 8.641,2.344 17.61,3.6 26.544,3.6h10.261c15.673,25.419 51.193,42.189 90.37,42.189 39.177,0 74.697-16.771 90.37-42.189h10.259c7.711,0 15.525-0.983 23.162-2.818-19.071,40.153-52.862,46.277-83.033,51.747zm124.831-94.934c-13.881,17.946-39.986,30.004-64.961,30.004h-2.596c1.91-5.817 2.849-11.768 2.849-17.964 0-4.993-0.631-9.916-1.864-14.717h68.516c-0.644,0.945-1.296,1.838-1.944,2.677zm8.893-18.677h-82.072c-0.971-1.671-2.021-3.315-3.151-4.93 17.799-8.647 51.799-25.788 77.661-38.951l7.078,27.254c1.56,6.01 1.501,11.593 0.484,16.627zm-122.729-84.662c-2.685-3.51-2.015-8.53 1.495-11.214 3.51-2.685 8.53-2.015 11.214,1.495l3.066,4.009c2.684,3.51 2.014,8.53-1.496,11.214-1.45,1.109-3.159,1.646-4.854,1.646-2.407,0-4.786-1.081-6.36-3.141l-3.065-4.009zm-144.367-26.728c-9.124,19.586-4.498,41.674 11.251,53.713 7.185,5.492 15.779,8.201 24.57,8.201 10.479,0 21.238-3.851 30.215-11.432 0.887-0.749 1.6-1.683 2.09-2.734 9.123-19.589 4.496-41.677-11.252-53.715-15.75-12.041-38.277-10.708-54.784,3.232-0.887,0.749-1.6,1.683-2.09,2.735zm13.796,8.38c10.543-8.028 24.039-8.763 33.361-1.637 9.32,7.125 12.153,20.342 7.173,32.623-10.544,8.025-24.042,8.758-33.361,1.635-9.321-7.125-12.153-20.341-7.173-32.621zm12.379,12.64l3.063-4.009c2.683-3.511 7.703-4.183 11.214-1.499 3.511,2.683 4.182,7.703 1.499,11.214l-3.063,4.009c-1.575,2.061-3.955,3.143-6.362,3.143-1.694,0-3.401-0.535-4.852-1.644-3.511-2.683-4.182-7.703-1.499-11.214zm34.888,50.385l-9.885,13.227c-2.453,3.282-2.029,7.888 0.981,10.667l33.002,30.47v17.651c-6.637,7.002-14.188,10.685-21.975,10.685-8.538,0-16.79-4.426-23.866-12.798-2.853-3.374-7.899-3.798-11.274-0.946-3.375,2.853-3.798,7.899-0.946,11.274 10.066,11.91 22.882,18.47 36.086,18.47 10.659,0 21.065-4.274 29.975-12.188 8.911,7.913 19.316,12.188 29.976,12.188 13.204,0 26.02-6.56 36.086-18.47 2.852-3.375 2.428-8.422-0.946-11.274-3.374-2.852-8.421-2.428-11.274,0.946-7.075,8.372-15.328,12.798-23.865,12.798-7.788,0-15.339-3.683-21.976-10.685v-17.655l32.996-30.465c3.011-2.78 3.435-7.385 0.981-10.667l-9.886-13.228c-1.511-2.021-3.886-3.211-6.408-3.211h-8.906c-1.956,0-3.844,0.717-5.308,2.015-3.164,2.806-7.238,4.351-11.472,4.351-4.233,0-8.308-1.546-11.474-4.353-1.464-1.297-3.351-2.013-5.307-2.013h-8.908c-2.522,0-4.897,1.19-6.407,3.211zm10.417,12.789h2.098c5.669,4.124 12.512,6.365 19.583,6.365 7.071,0 13.914-2.241 19.582-6.365h2.095l3.17,4.241-24.847,22.94-24.849-22.941 3.168-4.24z"/>
</svg>