<?xml version="1.0" encoding="iso-8859-1"?>
<!-- Uploaded to: SVG Repo, www.svgrepo.com, Generator: SVG Repo Mixer Tools -->
<!DOCTYPE svg PUBLIC "-//W3C//DTD SVG 1.1//EN" "http://www.w3.org/Graphics/SVG/1.1/DTD/svg11.dtd">
<svg fill="#000000" height="800px" width="800px" version="1.1" id="Capa_1" xmlns="http://www.w3.org/2000/svg" xmlns:xlink="http://www.w3.org/1999/xlink" 
	 viewBox="0 0 481.954 481.954" xml:space="preserve">
<path d="M479.945,96.401c-2.311-4.142-6.313-7.003-10.979-7.852l-19.484-3.542l-11.795-22.28c-0.569-1.074-1.391-1.995-2.394-2.681
	l-6.948-4.752l1.87-3.596c1.392-2.677,1.044-5.928-0.883-8.25c-1.928-2.322-5.06-3.263-7.946-2.388l-38.541,11.679
	c-8.571,2.597-16.139,7.602-21.886,14.472l-59.85,71.551c-13.65,2.077-76.738,10.638-128.065,0.277
	c-3.037-12.523-10.484-23.742-21.173-31.377l-8.084-5.774c-10.573-7.553-23.555-11.525-36.539-11.208
	c-13.669,0.342-26.949,5.39-37.393,14.215c-10.425,8.808-17.611,21.031-20.242,34.422l-6.184,28.721
	c-5.531,4.568-10.938,9.556-15.845,14.907c-11.416,12.448-15.687,29.791-11.427,46.392c3.481,13.565,7.736,30.317,12.303,48.444
	c3.005,11.931,1.547,24.52-4.106,35.45l-7.925,15.322c-3.337,6.452-5.688,13.347-6.988,20.494l-8.735,48.042
	c-1.188,6.529-0.876,13.36,0.9,19.756l3.568,12.846c1.885,6.788,8.123,11.528,15.167,11.528h23.405c4.187,0,8.11-1.857,10.764-5.094
	s3.705-7.449,2.884-11.553c-2.355-11.775-10.895-21.449-22.287-25.247l-1.908-0.636l0.91-4.66
	c6.125-31.391,21.721-59.517,45.102-81.339c16.975-15.843,31.377-33.938,42.962-53.923c22.014-13.294,50.424-12.121,71.261,3.117
	l40.959,29.956c12.45,9.105,27.435,14.106,42.772,14.396l21.127,83.453c1.812,7.155,4.512,14.072,8.026,20.56l8.188,15.116
	c5.298,9.78,15.498,15.855,26.62,15.855h28.369c3.805,0,7.405-1.843,9.63-4.93s2.835-7.085,1.632-10.696
	c-3.325-9.974-10.904-17.742-20.792-21.311l-7.862-2.838l-3.119-7.278c-3.172-7.401-4.646-15.564-4.263-23.607l3.725-78.227
	l16.177-22.137c7.836-10.723,13.582-22.657,17.076-35.469c2.517-9.229,6.419-17.985,11.599-26.028l38.805-60.248l18.33-4.852
	c12.035-3.186,21.929-12.01,26.466-23.604l3.962-10.125C482.59,105.451,482.256,100.543,479.945,96.401z M64.294,142.403
	c0.01-0.047,0.02-0.095,0.029-0.143c4.099-21.007,21.905-36.052,43.302-36.587c9.749-0.243,19.503,2.747,27.445,8.419l8.084,5.774
	c10.28,7.343,16.417,19.269,16.417,31.901c0,7.555-4.794,14.299-11.93,16.781c-7.374,2.564-15.454,0.075-20.105-6.195l-7.83-10.552
	c-11.285-15.211-31.286-20.533-48.636-12.94c-3.795,1.66-5.525,6.083-3.865,9.877c0.258,0.591,0.59,1.125,0.97,1.611
	c-2.099,1.311-4.269,2.705-6.494,4.189L64.294,142.403z M466.893,104.402l-3.962,10.125c-2.8,7.156-8.907,12.603-16.336,14.569
	l-21.141,5.596c-7.358,1.949-15.085,1-21.755-2.668l-17.024-9.363c-3.632-1.997-8.19-0.671-10.186,2.958
	c-1.996,3.629-0.672,8.19,2.958,10.186l17.024,9.363c5.186,2.852,10.795,4.598,16.533,5.234l-32.316,50.174
	c-6.011,9.333-10.54,19.495-13.46,30.204c-3.011,11.041-7.962,21.325-14.715,30.565L335.007,285.3
	c-0.867,1.187-1.366,2.601-1.436,4.068l-3.832,80.477c-0.49,10.299,1.397,20.753,5.459,30.229l4.402,10.271
	c0.818,1.91,2.393,3.395,4.347,4.1l10.926,3.945c4.091,1.477,7.477,4.235,9.719,7.827h-23.465c-5.611,0-10.757-3.065-13.43-8
	l-8.188-15.116c-2.923-5.395-5.168-11.147-6.675-17.097l-22.589-89.229c-2.89-11.416-2.732-23.442,0.456-34.778l8.083-28.74
	c1.122-3.988-1.202-8.129-5.189-9.25c-3.988-1.122-8.129,1.202-9.25,5.189l-8.083,28.74c-3.033,10.783-3.812,22.076-2.349,33.132
	c-11.015-0.863-21.669-4.761-30.663-11.338l-40.959-29.956c-12.992-9.502-28.363-14.78-44.452-15.263
	c-8.393-0.256-16.667,0.819-24.587,3.13l6.03-12.06c1.853-3.705,0.351-8.21-3.354-10.062c-3.704-1.853-8.21-0.351-10.062,3.354
	l-10.159,20.318c-11.768,23.537-27.49,44.575-46.728,62.53c-25.708,23.994-42.855,54.918-49.59,89.432l-2.171,11.127
	c-0.722,3.699,1.414,7.36,4.99,8.552l8.159,2.72c5.875,1.958,10.379,6.744,12.014,12.664H20.343c-0.332,0-0.625-0.223-0.714-0.543
	l-3.568-12.846c-1.174-4.227-1.38-8.742-0.595-13.057l8.735-48.043c1.033-5.68,2.901-11.159,5.553-16.286l7.925-15.322
	c7.336-14.184,9.229-30.522,5.329-46.006c-4.638-18.408-8.783-34.729-12.319-48.508c-2.995-11.67-0.022-23.83,7.953-32.526
	c19.453-21.213,48.652-36.816,57.224-41.138c4.577,1.65,8.705,4.632,11.794,8.796l7.83,10.552
	c6.329,8.529,16.096,13.265,26.243,13.265c3.61,0,7.268-0.6,10.836-1.84c12.27-4.268,20.779-15.37,21.875-28.145
	c18.598,3.375,38.168,4.553,56.382,4.553c39.977,0,73.395-5.642,75.509-6.006c1.751-0.302,3.338-1.216,4.479-2.579l61.651-73.706
	c3.868-4.624,8.962-7.992,14.731-9.74l21.493-6.513l-11.282,21.697c-1.911,3.675-0.481,8.203,3.194,10.114
	c3.675,1.912,8.203,0.48,10.114-3.194l10.659-20.499l3.922,2.683l7.412,14.001l-3.896,0.39c-4.122,0.412-7.129,4.087-6.717,8.209
	c0.387,3.868,3.647,6.754,7.454,6.754c0.25,0,0.501-0.012,0.755-0.038l13.95-1.395l22.028,4.005
	c0.093,0.017,0.377,0.069,0.563,0.403S466.928,104.314,466.893,104.402z"/>
</svg>