<?xml version="1.0" encoding="iso-8859-1"?>
<!-- Uploaded to: SVG Repo, www.svgrepo.com, Generator: SVG Repo Mixer Tools -->
<!DOCTYPE svg PUBLIC "-//W3C//DTD SVG 1.1//EN" "http://www.w3.org/Graphics/SVG/1.1/DTD/svg11.dtd">
<svg fill="#000000" height="800px" width="800px" version="1.1" id="Capa_1" xmlns="http://www.w3.org/2000/svg" xmlns:xlink="http://www.w3.org/1999/xlink" 
	 viewBox="0 0 456.99 456.99" xml:space="preserve">
<g>
	<path d="M452.546,157.804l-14.653-16.384c-0.345-0.385-0.391-0.943-0.117-1.383l5.959-9.539
		c10.213-16.344,8.041-37.48-5.281-51.399l-14.477-15.133l15.607-36.144c1.092-2.529,0.71-5.454-0.996-7.617
		s-4.458-3.216-7.175-2.745c-0.784,0.136-19.419,3.449-39.081,13.075c-25.345,12.408-40.876,29.778-45.194,50.44
		c-20.358,10.183-54.679,51.633-65.255,64.784c-8.258,1.519-34.787,6.173-68.429,9.816c-37.332,4.043-91.215,7.618-135.903,1.699
		c-6.267-0.83-12.498-0.296-18.35,1.43c-5.164-11.597-6.177-22.014-2.976-31.027c5.516-15.536,22.741-25.371,36.219-30.885
		c22.486-9.2,42.077-22.51,58.229-39.56l0.387-0.409c2.08-2.196,2.638-5.426,1.415-8.192c-1.224-2.766-4.007-4.513-7.012-4.465
		c-0.828,0.017-20.549,0.491-44.457,7.177c-32.234,9.015-56.624,25.174-70.532,46.732c-18.12,28.086-14.834,49.797-8.886,63.064
		c3.417,7.621,8.087,13.339,11.808,17.09c-8.922,11.657-16.178,24.569-20.945,33.952c-4.78,9.409-6.075,20.228-3.646,30.466
		l14.289,60.218c2.351,9.907-0.781,20.411-8.172,27.414C3.893,340.726-1.543,355.962,0.381,371.032l6.874,53.846
		c0.365,2.858,2.334,5.254,5.068,6.165l13.655,4.552c4.905,1.635,9.982,2.448,15.048,2.448c6.589,0,13.16-1.375,19.304-4.106
		c2.303-1.023,3.938-3.135,4.352-5.621s-0.448-5.013-2.294-6.728l-19.091-17.728l8.444-47.851
		c5.128-6.939,25.802-35.898,38.712-68.447c38.773-2.716,132.09,22.888,152.972,28.794l24.497,104.794
		c2.479,10.606,11.816,18.209,22.705,18.489c0.064,0.002,0.128,0.002,0.192,0.002c0.008,0,0.016,0,0.024,0l37.657-0.123
		c4.133-0.013,7.476-3.367,7.476-7.5c0-13.706-8.813-25.585-21.931-29.561l-5.472-1.658c-2.014-15.267-8.148-63.168-8.717-84.37
		c5.77-6.335,10.323-12.811,13.91-19.227l0.913-0.419c21.921-10.045,37.905-29.205,43.854-52.568l12.132-47.664l30.219,0.801
		c0.754,0.022,1.498,0.033,2.241,0.033c16.215,0,32.033-4.574,45.747-13.23c4.346-2.747,7.244-7.242,7.951-12.335
		C457.53,166.73,455.968,161.619,452.546,157.804z M43.08,106.207c18.864-29.239,56.383-40.339,80.472-44.53
		c-11.021,8.616-23.331,15.726-36.788,21.231c-23.391,9.571-38.838,23.316-44.674,39.749c-4.591,12.929-3.358,27.264,3.644,42.69
		c-0.764,0.557-1.511,1.14-2.242,1.748c-2.704-2.824-6.065-7.076-8.466-12.662C28.91,140.198,31.619,123.972,43.08,106.207z
		 M441.966,169.756c-0.058,0.417-0.279,1.194-1.104,1.716c-11.31,7.139-24.359,10.912-37.737,10.912
		c-0.597,0-1.193-0.009-1.821-0.027l-36.23-0.96c-3.489-0.094-6.603,2.252-7.467,5.647l-13.61,53.47
		c-3.367,13.225-10.709,24.779-20.877,33.328c2.145-8.347,2.968-16.089,3.113-22.67c0.421-19.167-4.6-32.789-4.813-33.36
		c-1.451-3.871-5.756-5.826-9.631-4.386c-3.875,1.44-5.85,5.754-4.421,9.633c0.043,0.117,4.325,11.947,3.855,28.371
		c-0.619,21.633-8.798,40.77-24.311,56.879c-1.346,1.398-2.098,3.262-2.098,5.202c0,23.895,9.144,91.224,9.533,94.079
		c0.396,2.906,2.45,5.314,5.256,6.164l10.092,3.058c4.179,1.266,7.509,4.092,9.438,7.736l-28.214,0.092
		c-4.029-0.144-7.472-2.972-8.392-6.905l-25.124-107.472l7.549-36.234c0.845-4.055-1.758-8.027-5.813-8.872
		c-4.055-0.845-8.027,1.758-8.872,5.813l-6.242,29.962c-25.458-7.141-105.729-28.656-148.268-28.522
		c3.545-11.797,5.661-23.69,5.3-34.855c-0.133-4.14-3.599-7.384-7.738-7.254c-4.14,0.134-7.388,3.598-7.254,7.738
		c1.473,45.638-46.881,109.721-47.369,110.363c-0.724,0.951-1.211,2.063-1.419,3.24l-9.464,53.631
		c-0.442,2.507,0.417,5.067,2.282,6.799l11.798,10.956c-3.755,0.104-7.536-0.451-11.175-1.664l-9.184-3.061l-6.277-49.171
		c-1.32-10.341,2.41-20.795,9.979-27.965c11.261-10.668,16.032-26.672,12.451-41.766L23.4,239.183
		c-1.61-6.785-0.749-13.962,2.424-20.208c5.205-10.243,13.53-24.94,23.637-36.789c6.479-7.596,16.243-11.35,26.121-10.042
		c17.856,2.365,36.954,3.313,56.119,3.313c75.441-0.002,151.746-14.698,155.741-15.479c1.75-0.342,3.322-1.297,4.433-2.694
		c19.651-24.719,52.43-60.805,63.775-63.641c2.995-0.749,5.225-3.255,5.62-6.316c3.913-30.329,38.466-45.279,58.502-51.458
		l-23.927,55.411c-1.642,3.803,0.109,8.217,3.912,9.859c3.802,1.642,8.216-0.11,9.858-3.912l7.907-18.311l10.095,10.552
		c8.574,8.958,9.971,22.561,3.397,33.08l-5.962,9.544c-3.783,6.063-3.098,14.013,1.663,19.329l14.658,16.389
		C442.023,168.538,442.024,169.342,441.966,169.756z"/>
	<path d="M420.446,131.351c-1.731-4.179-5.601-7.075-10.099-7.557l-5.874-0.629c-2.232-0.24-4.452,0.533-6.052,2.105
		c-1.602,1.572-2.415,3.777-2.217,6.012l0.519,5.883c0.445,5.047,3.864,9.26,8.711,10.735c1.199,0.365,2.418,0.542,3.624,0.542
		c3.667,0,7.197-1.638,9.591-4.606l0,0C421.489,140.314,422.177,135.531,420.446,131.351z"/>
</g>
</svg>