<?xml version="1.0" encoding="iso-8859-1"?>
<!-- Uploaded to: SVG Repo, www.svgrepo.com, Generator: SVG Repo Mixer Tools -->
<!DOCTYPE svg PUBLIC "-//W3C//DTD SVG 1.1//EN" "http://www.w3.org/Graphics/SVG/1.1/DTD/svg11.dtd">
<svg fill="#000000" height="800px"  width="800px" version="1.1" id="Capa_1" xmlns="http://www.w3.org/2000/svg" xmlns:xlink="http://www.w3.org/1999/xlink" 
	 viewBox="0 0 479.034 479.034" xml:space="preserve">
<path d="M476.517,153.943l-40.623-36.109l-1.35-11.469c-1.162-9.891-5.805-19.089-13.07-25.901l-15.73-14.748l8.162-34.279
	c0.782-3.286-0.728-6.689-3.689-8.313c-2.962-1.624-6.643-1.067-8.993,1.358l-39.401,40.672c-2.347,2.423-4.35,5.125-5.983,8.021
	c-9.543,4.186-41.18,20.068-57.532,52.737c-9.938,19.856-30.27,31.457-51.799,29.562c-0.725-0.063-1.457-0.135-2.202-0.215
	c-19.303-2.066-58.112-0.979-115.353,3.234c-12.689,0.934-24.802,4.057-35.955,9c-3.527-6.546-9.562-16.433-17.341-24.127
	c-2.288-2.262-1.844-4.967-1.546-6.024c0.297-1.058,1.32-3.583,4.418-4.357c0.087-0.019,0.171-0.038,0.25-0.056
	c0.089-0.017,0.177-0.035,0.265-0.055c1.619-0.365,3.288-0.071,4.702,0.82l25.908,16.364c2.099,1.324,4.714,1.526,6.987,0.54
	c2.275-0.986,3.916-3.033,4.384-5.469c0.036-0.189,0.226-1.216,0.415-2.914c2.093-18.778-4.87-36.714-19.104-49.21
	C88.129,80.532,68.668,75.785,50.285,80.3c-30.833,7.573-48.668,28.837-50.22,59.875c-0.942,18.829,7.852,43.484,52.757,58.086
	c-9.726,12.013-16.972,26.229-20.905,41.958c-4.468,17.872-2.765,36.967,4.794,53.768l16.361,36.357l-22.088,42.703
	c-0.703,1.358-0.974,2.899-0.775,4.416l8.585,65.816c1.008,7.729,7.646,13.556,15.438,13.556h21.418c2.717,0,5.222-1.47,6.547-3.841
	c1.326-2.372,1.265-5.275-0.159-7.589l-11.711-19.031l-1.847-24.927c-0.602-8.124,2.203-16.233,7.696-22.249l42.877-46.962
	c9.062-9.923,16.357-21.211,21.686-33.55l11.693-27.078l51.914,27.13c17.061,8.916,35.863,13.469,54.811,13.469
	c7.027,0,14.073-0.632,21.057-1.895l25.65,113.752c0.238,1.055,0.701,2.047,1.358,2.906l18.164,23.751
	c2.926,3.828,7.55,6.113,12.368,6.113h26.099c3.033,0,5.769-1.827,6.929-4.63c1.161-2.803,0.52-6.028-1.625-8.173l-13.836-13.835
	c-6.203-6.204-10.12-14.426-11.029-23.151L333.29,301.423c12.242-8.242,46.206-35.942,58.498-96.032
	c0.026-0.129,0.05-0.26,0.069-0.39l3.634-24.226l24.416,3.756c21.189,3.261,42.54-4.173,57.124-19.878
	c1.373-1.479,2.092-3.448,1.995-5.462C478.929,157.174,478.025,155.283,476.517,153.943z M15.046,140.924
	c1.228-24.536,14.287-40.031,38.817-46.056c13.833-3.398,27.895,0.032,38.576,9.41c7.86,6.9,12.715,16.046,14.011,26.015
	l-14.701-9.286c-4.774-3.008-10.414-3.997-15.901-2.789c-0.117,0.024-0.229,0.049-0.335,0.074c-0.112,0.021-0.225,0.045-0.337,0.071
	c-7.472,1.762-13.414,7.479-15.506,14.918c-2.117,7.532-0.084,15.289,5.438,20.75c6.409,6.339,11.577,14.839,14.624,20.482
	c-5.456,3.393-10.596,7.256-15.354,11.553C30.61,176.789,14.012,161.615,15.046,140.924z M331.468,283.938l-1.327-12.735
	c-0.43-4.12-4.114-7.114-8.237-6.683c-4.119,0.429-7.111,4.117-6.683,8.236l14.15,135.843c1.266,12.137,6.714,23.574,15.342,32.203
	l1.033,1.033h-7.992c-0.176,0-0.345-0.083-0.452-0.224l-17.167-22.448l-36.06-159.918c-0.911-4.04-4.925-6.576-8.966-5.667
	c-4.041,0.911-6.578,4.925-5.667,8.966l7.464,33.099c-22.344,3.895-45.381,0.373-65.613-10.2l-52.898-27.645l4.901-11.35
	c1.642-3.803-0.109-8.217-3.912-9.858c-3.807-1.643-8.218,0.109-9.859,3.912l-22.557,52.237
	c-4.666,10.806-11.056,20.691-18.991,29.382l-42.877,46.962c-8.264,9.049-12.483,21.249-11.578,33.471l1.981,26.749
	c0.089,1.197,0.463,2.354,1.092,3.376l5.634,9.155h-7.996c-0.285,0-0.528-0.213-0.565-0.497l-8.28-63.487l22.673-43.835
	c1.053-2.034,1.118-4.436,0.179-6.523l-17.848-39.661c-6.183-13.741-7.575-29.358-3.921-43.975
	c9.787-39.15,43.377-67.443,83.583-70.404c55.549-4.089,94.502-5.222,112.652-3.279c0.84,0.09,1.668,0.171,2.484,0.243
	c27.715,2.437,53.817-12.391,66.529-37.79c9.971-19.921,27.119-32.83,39.027-39.893c0.003,0.652,0.021,1.305,0.057,1.958
	l0.752,13.537l-9.261,40.133c-0.624,2.703,0.295,5.53,2.39,7.349c2.094,1.819,5.021,2.334,7.61,1.338l7.744-2.979l-5.111,24.536
	c-0.537,2.581,0.319,5.255,2.258,7.042c1.404,1.295,3.226,1.987,5.086,1.987c0.706,0,1.419-0.1,2.115-0.305l15.643-4.601
	l-2.978,19.847C367.731,247.902,344.669,272.903,331.468,283.938z M422.188,169.705l-31.856-4.901c-0.012-0.002-0.028,0.001-0.04,0
	c-1.044-0.156-2.137-0.1-3.217,0.217l-14.908,4.385l5.364-25.747c0.56-2.688-0.394-5.466-2.485-7.244
	c-2.092-1.779-4.987-2.271-7.55-1.286l-7.411,2.85l6.327-27.418c0.159-0.689,0.22-1.397,0.181-2.103l-0.812-14.601
	c-0.375-6.752,2.109-13.412,6.814-18.27l20.39-21.047l-9.507,39.928c-0.96,4.03,1.529,8.074,5.559,9.033
	c4.027,0.958,8.073-1.529,9.033-5.559l3.671-15.419l9.473,8.881c4.688,4.395,7.683,10.329,8.434,16.71l0.697,5.927h-4.234
	c-4.143,0-7.5,3.358-7.5,7.5s3.357,7.5,7.5,7.5h9.817l34.45,30.622C449.679,168.096,435.882,171.812,422.188,169.705z"/>
</svg>