<svg width="6" height="6" viewBox="0 0 6 6" fill="none" xmlns="http://www.w3.org/2000/svg">
<path fill-rule="evenodd" clip-rule="evenodd" d="M5.34995 1.42718C5.43011 1.30127 5.45697 1.14867 5.42462 1.00296C5.39227 0.857243 5.30336 0.730346 5.17745 0.650185C5.05153 0.570023 4.89894 0.543163 4.75322 0.575513C4.6075 0.607863 4.48061 0.696773 4.40045 0.822685L2.1977 4.28393L1.1897 3.02393C1.09651 2.90737 0.960828 2.8326 0.81251 2.81608C0.664192 2.79955 0.515384 2.84262 0.398821 2.93581C0.282258 3.029 0.20749 3.16468 0.190963 3.313C0.174436 3.46131 0.217506 3.61012 0.310696 3.72668L1.8107 5.60168C1.8666 5.67165 1.9384 5.72726 2.02012 5.76388C2.10185 5.8005 2.19114 5.81708 2.28056 5.81224C2.36999 5.8074 2.45696 5.78128 2.53426 5.73604C2.61155 5.69081 2.67692 5.62778 2.72495 5.55218L5.34995 1.42718Z" fill="white"/>
</svg>
