<svg width="12" height="12" viewBox="0 0 12 12" fill="none" xmlns="http://www.w3.org/2000/svg">
<path d="M9.2666 2.12521C9.38057 2.40085 9.59933 2.61994 9.8748 2.73432L10.8407 3.13442C11.1164 3.2486 11.3354 3.46761 11.4496 3.74327C11.5637 4.01892 11.5637 4.32865 11.4496 4.6043L11.0497 5.56953C10.9355 5.8453 10.9354 6.15534 11.0501 6.43099L11.4492 7.39593C11.5058 7.53245 11.535 7.6788 11.535 7.8266C11.535 7.9744 11.5059 8.12075 11.4494 8.2573C11.3928 8.39384 11.3099 8.51791 11.2054 8.6224C11.1008 8.72689 10.9767 8.80976 10.8402 8.86628L9.87496 9.26609C9.59933 9.38006 9.38023 9.59882 9.26585 9.87429L8.86575 10.8402C8.75157 11.1159 8.53256 11.3349 8.25691 11.449C7.98125 11.5632 7.67152 11.5632 7.39587 11.449L6.43064 11.0492C6.15498 10.9353 5.84537 10.9356 5.56987 11.0499L4.60396 11.4494C4.32845 11.5633 4.019 11.5632 3.74357 11.4491C3.46813 11.3351 3.24925 11.1163 3.13499 10.8409L2.73478 9.87474C2.6208 9.5991 2.40204 9.38001 2.12658 9.26563L1.16066 8.86553C0.885124 8.7514 0.666181 8.53253 0.551958 8.25703C0.437735 7.98153 0.43758 7.67195 0.551528 7.39634L0.951336 6.43112C1.06524 6.15545 1.065 5.84584 0.950689 5.57035L0.551455 4.60374C0.494851 4.46721 0.465705 4.32086 0.465681 4.17307C0.465657 4.02527 0.494757 3.87891 0.551317 3.74237C0.607876 3.60582 0.690788 3.48175 0.795314 3.37726C0.899839 3.27277 1.02393 3.1899 1.1605 3.13338L2.12572 2.73357C2.40111 2.6197 2.62008 2.40122 2.73455 2.12607L3.13464 1.16015C3.24882 0.884496 3.46783 0.665488 3.74349 0.551307C4.01914 0.437126 4.32887 0.437126 4.60452 0.551307L5.56975 0.951115C5.84541 1.06502 6.15503 1.06478 6.43052 0.950469L7.39684 0.551927C7.67246 0.43781 7.98212 0.437834 8.25772 0.551992C8.53332 0.66615 8.7523 0.885095 8.8665 1.16068L9.26672 2.12688L9.2666 2.12521Z" fill="#0788F5"/>
</svg>
